<svg width="114" height="86" viewBox="0 0 114 86" fill="none" xmlns="http://www.w3.org/2000/svg">
<g clip-path="url(#clip0_9_3630)">
<mask id="mask0_9_3630" style="mask-type:luminance" maskUnits="userSpaceOnUse" x="14" y="45" width="86" height="17">
<path d="M14.1875 45.7969H99.1418V61.4561H14.1875V45.7969Z" fill="white"/>
</mask>
<g mask="url(#mask0_9_3630)">
<path d="M14.1875 61.281V45.95H16.7278L25.5979 58.1053L24.9409 58.3243V45.95H27.4814V61.281H24.9409L16.0926 49.1475L16.7717 48.9286V61.281H14.1875ZM38.388 45.7969C39.5269 45.7969 40.5883 45.994 41.5725 46.3883C42.5595 46.7823 43.421 47.3371 44.1568 48.0526C44.8955 48.768 45.4723 49.5959 45.8869 50.5362C46.3045 51.4795 46.5135 52.4986 46.5135 53.5935C46.5135 54.6888 46.3045 55.7135 45.8869 56.6686C45.4723 57.6263 44.8955 58.463 44.1568 59.1784C43.421 59.8939 42.5595 60.4517 41.5725 60.8516C40.5883 61.2548 39.5269 61.4561 38.388 61.4561C37.2491 61.4561 36.1863 61.2548 35.1993 60.8516C34.2151 60.4517 33.3538 59.8939 32.6148 59.1784C31.8791 58.463 31.3023 57.6263 30.8847 56.6686C30.47 55.7135 30.2628 54.6888 30.2628 53.5935C30.2628 52.4986 30.47 51.4765 30.8847 50.5273C31.3023 49.5785 31.8791 48.7491 32.6148 48.0396C33.3538 47.3328 34.2151 46.7823 35.1993 46.3883C36.1863 45.994 37.2491 45.7969 38.388 45.7969ZM38.4099 47.9871C37.6507 47.9871 36.9383 48.1284 36.2725 48.4118C35.6096 48.6981 35.0225 49.0965 34.5116 49.6077C34.0005 50.1186 33.602 50.713 33.3157 51.3903C33.0324 52.0709 32.8907 52.8053 32.8907 53.5935C32.8907 54.3822 33.0369 55.1194 33.329 55.8056C33.6209 56.4918 34.0223 57.0933 34.5335 57.6104C35.0444 58.1301 35.6314 58.5359 36.2943 58.8281C36.9602 59.12 37.6653 59.2661 38.4099 59.2661C39.1545 59.2661 39.8584 59.12 40.5213 58.8281C41.1871 58.5359 41.7682 58.1301 42.2647 57.6104C42.7611 57.0933 43.1507 56.4918 43.434 55.8056C43.7203 55.1194 43.8635 54.3822 43.8635 53.5935C43.8635 52.8053 43.7203 52.0709 43.434 51.3903C43.1507 50.713 42.7611 50.1186 42.2647 49.6077C41.7682 49.0965 41.1871 48.6981 40.5213 48.4118C39.8584 48.1284 39.1545 47.9871 38.4099 47.9871ZM53.4298 61.281L47.3237 45.95H50.1009L54.8314 58.5652L59.6103 45.95H62.2996L56.1061 61.281H53.4298ZM62.3873 61.281L69.1548 45.95H71.8048L78.5065 61.281H75.747L70.4029 48.5564L65.081 61.281H62.3873ZM65.7601 57.7328V55.5429H74.9365V57.7328H65.7601ZM90.3549 53.4185L85.1643 45.95H88.165L91.91 51.4036L95.6768 45.95H98.6993L93.5524 53.3091L99.1373 61.281H96.0493L91.91 55.3676L87.7925 61.281H84.7703L90.3549 53.4185Z" fill="#353535"/>
</g>
<mask id="mask1_9_3630" style="mask-type:luminance" maskUnits="userSpaceOnUse" x="14" y="65" width="86" height="7">
<path d="M14.1875 65.1484H99.1418V71.6934H14.1875V65.1484Z" fill="white"/>
</mask>
<g mask="url(#mask1_9_3630)">
<path d="M14.2674 70.2606C14.2196 70.2606 14.1953 70.2364 14.1953 70.1885V65.2925C14.1953 65.2444 14.2196 65.2204 14.2674 65.2204H14.6345C14.6826 65.2204 14.7065 65.2444 14.7065 65.2925V70.1885C14.7065 70.2364 14.6826 70.2606 14.6345 70.2606H14.2674ZM17.4714 66.5669C17.8554 66.5669 18.1611 66.6796 18.3886 66.9051C18.6171 67.1309 18.7316 67.4332 18.7316 67.8124V70.1885C18.7316 70.2364 18.7074 70.2606 18.6596 70.2606H18.2922C18.2443 70.2606 18.2202 70.2364 18.2202 70.1885V67.9133C18.2202 67.6492 18.1396 67.4332 17.9785 67.2652C17.8182 67.0972 17.6107 67.0131 17.3563 67.0131C17.0921 67.0131 16.8787 67.0949 16.7155 67.2581C16.5523 67.4213 16.4706 67.6347 16.4706 67.8989V70.1885C16.4706 70.2364 16.4466 70.2606 16.3986 70.2606H16.0314C15.9833 70.2606 15.9594 70.2364 15.9594 70.1885V66.6891C15.9594 66.6413 15.9833 66.6174 16.0314 66.6174H16.3986C16.4466 66.6174 16.4706 66.6413 16.4706 66.6891V66.9987C16.4706 67.0085 16.4741 67.0155 16.4806 67.0206C16.4883 67.0252 16.4948 67.0229 16.4995 67.0131C16.7105 66.7157 17.0346 66.5669 17.4714 66.5669ZM21.3525 66.5669C21.7364 66.5669 22.0422 66.6796 22.2698 66.9051C22.4982 67.1309 22.6124 67.4332 22.6124 67.8124V70.1885C22.6124 70.2364 22.5882 70.2606 22.5404 70.2606H22.1732C22.1252 70.2606 22.1012 70.2364 22.1012 70.1885V67.9133C22.1012 67.6492 22.0204 67.4332 21.8592 67.2652C21.699 67.0972 21.4915 67.0131 21.2371 67.0131C20.9732 67.0131 20.7595 67.0949 20.5963 67.2581C20.4331 67.4213 20.3517 67.6347 20.3517 67.8989V70.1885C20.3517 70.2364 20.3275 70.2606 20.2797 70.2606H19.9121C19.8644 70.2606 19.8401 70.2364 19.8401 70.1885V66.6891C19.8401 66.6413 19.8644 66.6174 19.9121 66.6174H20.2797C20.3275 66.6174 20.3517 66.6413 20.3517 66.6891V66.9987C20.3517 67.0085 20.3549 67.0155 20.3617 67.0206C20.3693 67.0252 20.3755 67.0229 20.3803 67.0131C20.5916 66.7157 20.9157 66.5669 21.3525 66.5669ZM25.0588 70.3181C24.7132 70.3181 24.4157 70.2292 24.166 70.0516C23.9166 69.8742 23.7436 69.6293 23.6478 69.3173C23.5804 69.0965 23.5468 68.8014 23.5468 68.4316C23.5468 68.0621 23.5804 67.7693 23.6478 67.5532C23.739 67.246 23.9093 67.0037 24.159 66.826C24.4086 66.6484 24.7108 66.5595 25.0662 66.5595C25.4071 66.5595 25.7014 66.6484 25.949 66.826C26.1957 67.0037 26.3645 67.2437 26.4557 67.5462C26.523 67.7525 26.5567 68.0476 26.5567 68.4316C26.5567 68.8206 26.523 69.1157 26.4557 69.3173C26.3645 69.6293 26.1957 69.8742 25.949 70.0516C25.7014 70.2292 25.4044 70.3181 25.0588 70.3181ZM25.0588 69.8716C25.2893 69.8716 25.4862 69.8078 25.6494 69.68C25.8126 69.5534 25.923 69.382 25.9805 69.1662C26.0236 68.9932 26.0454 68.7509 26.0454 68.439C26.0454 68.122 26.0263 67.8797 25.9879 67.7117C25.9301 67.4957 25.8188 67.3239 25.6538 67.1961C25.4876 67.0695 25.2869 67.006 25.0517 67.006C24.8165 67.006 24.6173 67.0695 24.4541 67.1961C24.2909 67.3239 24.1805 67.4957 24.1229 67.7117C24.0846 67.8797 24.0654 68.122 24.0654 68.439C24.0654 68.7557 24.0846 68.998 24.1229 69.1662C24.1757 69.382 24.2852 69.5534 24.4511 69.68C24.6164 69.8078 24.8189 69.8716 25.0588 69.8716ZM28.3782 70.2606C28.3352 70.2606 28.3062 70.2414 28.2918 70.203L27.1109 66.6965L27.1038 66.6676C27.1038 66.6339 27.1254 66.6174 27.1685 66.6174H27.579C27.6221 66.6174 27.651 66.6366 27.6655 66.6749L28.5654 69.4973C28.5701 69.5068 28.5775 69.5118 28.5869 69.5118C28.5967 69.5118 28.6038 69.5068 28.6087 69.4973L29.5086 66.6749C29.5231 66.6366 29.5517 66.6174 29.5951 66.6174L30.0053 66.6244C30.0582 66.6244 30.0774 66.6507 30.0629 66.7035L28.8823 70.203C28.8679 70.2414 28.839 70.2606 28.7959 70.2606H28.3782ZM32.0504 66.5595C32.4822 66.5595 32.816 66.6699 33.0512 66.891C33.2864 67.1118 33.4039 67.4045 33.4039 67.7693V70.1885C33.4039 70.2364 33.3799 70.2606 33.3319 70.2606H32.9647C32.9166 70.2606 32.8927 70.2364 32.8927 70.1885V69.8934C32.8927 69.8837 32.8888 69.8766 32.8812 69.8716C32.8744 69.8669 32.8664 69.8692 32.8567 69.879C32.7366 70.023 32.5807 70.1319 32.3886 70.2057C32.1967 70.2806 31.9831 70.3181 31.7479 70.3181C31.4069 70.3181 31.1216 70.2317 30.8911 70.059C30.6605 69.886 30.5455 69.6222 30.5455 69.2668C30.5455 68.9068 30.6759 68.6223 30.9371 68.413C31.1992 68.2047 31.5631 68.1005 32.0288 68.1005H32.8637C32.8829 68.1005 32.8927 68.091 32.8927 68.0715V67.7979C32.8927 67.5532 32.8239 67.36 32.6867 67.2177C32.5503 67.0766 32.3384 67.006 32.0504 67.006C31.8199 67.006 31.6327 67.0503 31.4887 67.1386C31.3447 67.2277 31.2558 67.3517 31.2222 67.5102C31.2077 67.558 31.1791 67.5795 31.1357 67.5748L30.747 67.5244C30.6942 67.5149 30.6726 67.4957 30.6824 67.4668C30.7207 67.1979 30.8648 66.9795 31.1142 66.8116C31.3639 66.6436 31.6758 66.5595 32.0504 66.5595ZM31.8488 69.879C32.1318 69.879 32.3768 69.8078 32.5831 69.6658C32.7894 69.5248 32.8927 69.3341 32.8927 69.0942V68.5325C32.8927 68.5133 32.8829 68.5036 32.8637 68.5036H32.1079C31.7909 68.5036 31.5365 68.5685 31.3447 68.6981C31.1525 68.8277 31.0566 69.0077 31.0566 69.2382C31.0566 69.4492 31.1295 69.6086 31.2756 69.716C31.4223 69.8246 31.6136 69.879 31.8488 69.879ZM36.0751 66.9701C36.0751 67.0181 36.0513 67.0421 36.0031 67.0421H35.1895C35.1703 67.0421 35.1608 67.0515 35.1608 67.0707V69.1948C35.1608 69.4253 35.2121 69.587 35.3149 69.68C35.4185 69.7742 35.5808 69.8214 35.8016 69.8214H35.9816C36.0294 69.8214 36.0536 69.8453 36.0536 69.8934V70.1885C36.0536 70.2364 36.0294 70.2606 35.9816 70.2606C35.924 70.2653 35.8353 70.2676 35.7151 70.2676C35.3695 70.2676 35.108 70.203 34.9303 70.0731C34.7526 69.9436 34.6638 69.7036 34.6638 69.3533V67.0707C34.6638 67.0515 34.6544 67.0421 34.6352 67.0421H34.196C34.1479 67.0421 34.124 67.0181 34.124 66.9701V66.6891C34.124 66.6413 34.1479 66.6174 34.196 66.6174H34.6352C34.6544 66.6174 34.6638 66.6076 34.6638 66.5885V65.7532C34.6638 65.7051 34.688 65.6812 34.7358 65.6812H35.0888C35.1366 65.6812 35.1608 65.7051 35.1608 65.7532V66.5885C35.1608 66.6076 35.1703 66.6174 35.1895 66.6174H36.0031C36.0513 66.6174 36.0751 66.6413 36.0751 66.6891V66.9701ZM37.4057 65.9548C37.2905 65.9548 37.1947 65.9164 37.1176 65.8397C37.0409 65.7629 37.0025 65.6667 37.0025 65.5516C37.0025 65.4315 37.0409 65.3341 37.1176 65.2591C37.1947 65.1854 37.2905 65.1484 37.4057 65.1484C37.521 65.1484 37.617 65.1854 37.6937 65.2591C37.7705 65.3341 37.8088 65.4315 37.8088 65.5516C37.8088 65.6667 37.7705 65.7629 37.6937 65.8397C37.617 65.9164 37.521 65.9548 37.4057 65.9548ZM37.2041 70.2532C37.1563 70.2532 37.1321 70.2292 37.1321 70.1812V66.682C37.1321 66.6339 37.1563 66.61 37.2041 66.61H37.5712C37.6194 66.61 37.6432 66.6339 37.6432 66.682V70.1812C37.6432 70.2292 37.6194 70.2532 37.5712 70.2532H37.2041ZM40.4081 66.5669C40.7921 66.5669 41.0985 66.6796 41.3269 66.9051C41.5544 67.1309 41.6681 67.4332 41.6681 67.8124V70.1885C41.6681 70.2364 41.6441 70.2606 41.5964 70.2606H41.2289C41.181 70.2606 41.1569 70.2364 41.1569 70.1885V67.9133C41.1569 67.6492 41.0769 67.4332 40.9166 67.2652C40.7552 67.0972 40.5474 67.0131 40.293 67.0131C40.0288 67.0131 39.8154 67.0949 39.6522 67.2581C39.489 67.4213 39.4073 67.6347 39.4073 67.8989V70.1885C39.4073 70.2364 39.3834 70.2606 39.3353 70.2606H38.9681C38.92 70.2606 38.8961 70.2364 38.8961 70.1885V66.6891C38.8961 66.6413 38.92 66.6174 38.9681 66.6174H39.3353C39.3834 66.6174 39.4073 66.6413 39.4073 66.6891V66.9987C39.4073 67.0085 39.4111 67.0155 39.4188 67.0206C39.4256 67.0252 39.4315 67.0229 39.4362 67.0131C39.6473 66.7157 39.9713 66.5669 40.4081 66.5669ZM45.0235 66.6891C45.0235 66.6413 45.0474 66.6174 45.0955 66.6174H45.4626C45.5107 66.6174 45.5347 66.6413 45.5347 66.6891V70.1381C45.5347 70.6759 45.3797 71.0693 45.0695 71.3189C44.7605 71.5686 44.3347 71.6931 43.7922 71.6931C43.6818 71.6931 43.598 71.6908 43.5401 71.6861C43.4923 71.6813 43.4681 71.6548 43.4681 71.607L43.4825 71.2758C43.4825 71.2517 43.4899 71.2339 43.5041 71.2224C43.5186 71.21 43.5354 71.2062 43.5546 71.2109L43.7491 71.218C44.1953 71.218 44.5194 71.1306 44.721 70.9559C44.9225 70.7803 45.0235 70.5029 45.0235 70.1236V69.8574C45.0235 69.8477 45.0196 69.8415 45.012 69.8385C45.0052 69.8367 44.9969 69.8406 44.9875 69.85C44.7668 70.1381 44.4521 70.2821 44.0442 70.2821C43.7322 70.2821 43.4548 70.198 43.2119 70.0301C42.9699 69.8621 42.8082 69.6246 42.7268 69.3173C42.6689 69.1205 42.6402 68.8277 42.6402 68.439C42.6402 68.2276 42.6458 68.05 42.6574 67.9059C42.6701 67.7619 42.6954 67.6323 42.7338 67.5173C42.8203 67.2292 42.9761 66.9975 43.2019 66.8216C43.4274 66.6469 43.6986 66.5595 44.0153 66.5595C44.4426 66.5595 44.7668 66.7012 44.9875 66.9845C44.9969 66.994 45.0052 66.9963 45.012 66.9916C45.0196 66.9869 45.0235 66.9795 45.0235 66.9701V66.6891ZM44.9875 69.1588C45.002 69.0868 45.0114 68.998 45.0161 68.8926C45.0211 68.787 45.0235 68.6331 45.0235 68.4316C45.0235 68.1869 45.0211 68.0222 45.0161 67.9378C45.0114 67.8543 44.9996 67.7764 44.9804 67.7043C44.9417 67.5028 44.8467 67.3358 44.695 67.2032C44.5445 67.0719 44.3538 67.006 44.1233 67.006C43.8979 67.006 43.7069 67.0707 43.5505 67.2006C43.3949 67.3301 43.2857 67.4981 43.2235 67.7043C43.1753 67.8582 43.1515 68.0981 43.1515 68.4245C43.1515 68.7748 43.1753 69.0171 43.2235 69.1518C43.2715 69.3533 43.3757 69.5198 43.536 69.6514C43.6971 69.7839 43.8931 69.85 44.1233 69.85C44.3585 69.85 44.5516 69.7854 44.7024 69.6559C44.8541 69.526 44.9491 69.3604 44.9875 69.1588ZM49.3278 66.5595C49.7596 66.5595 50.0934 66.6699 50.3286 66.891C50.5638 67.1118 50.6813 67.4045 50.6813 67.7693V70.1885C50.6813 70.2364 50.6574 70.2606 50.6093 70.2606H50.2421C50.1941 70.2606 50.1701 70.2364 50.1701 70.1885V69.8934C50.1701 69.8837 50.1669 69.8766 50.1601 69.8716C50.1524 69.8669 50.1436 69.8692 50.1341 69.879C50.014 70.023 49.8581 70.1319 49.666 70.2057C49.4742 70.2806 49.2605 70.3181 49.0253 70.3181C48.6844 70.3181 48.399 70.2317 48.1685 70.059C47.938 69.886 47.8229 69.6222 47.8229 69.2668C47.8229 68.9068 47.9539 68.6223 48.216 68.413C48.4772 68.2047 48.8405 68.1005 49.306 68.1005H50.1412C50.1604 68.1005 50.1701 68.091 50.1701 68.0715V67.7979C50.1701 67.5532 50.102 67.36 49.9656 67.2177C49.8284 67.0766 49.6155 67.006 49.3278 67.006C49.0973 67.006 48.9101 67.0503 48.7661 67.1386C48.6221 67.2277 48.5333 67.3517 48.4997 67.5102C48.4851 67.558 48.4565 67.5795 48.4131 67.5748L48.0245 67.5244C47.9716 67.5149 47.9501 67.4957 47.9595 67.4668C47.9982 67.1979 48.1419 66.9795 48.3916 66.8116C48.6413 66.6436 48.9533 66.5595 49.3278 66.5595ZM49.1262 69.879C49.4093 69.879 49.6542 69.8078 49.8605 69.6658C50.0668 69.5248 50.1701 69.3341 50.1701 69.0942V68.5325C50.1701 68.5133 50.1604 68.5036 50.1412 68.5036H49.3853C49.0684 68.5036 48.814 68.5685 48.6221 68.6981C48.43 68.8277 48.334 69.0077 48.334 69.2382C48.334 69.4492 48.4076 69.6086 48.5545 69.716C48.7003 69.8246 48.891 69.879 49.1262 69.879ZM53.1221 70.3181C52.7765 70.3181 52.4804 70.2278 52.2338 70.0475C51.9861 69.8677 51.8164 69.6246 51.7252 69.3173C51.6629 69.106 51.6317 68.8085 51.6317 68.4245C51.6317 68.0789 51.6629 67.7862 51.7252 67.5462C51.8117 67.2484 51.9796 67.0093 52.2293 66.829C52.479 66.6493 52.7765 66.5595 53.1221 66.5595C53.4724 66.5595 53.7765 66.6484 54.0338 66.826C54.2899 67.0037 54.4568 67.2245 54.5334 67.4883C54.5574 67.5748 54.5718 67.6468 54.5765 67.7043V67.7188C54.5765 67.7525 54.555 67.774 54.5119 67.7837L54.1518 67.8339H54.1374C54.1038 67.8339 54.0821 67.8124 54.0725 67.7693L54.0509 67.6613C54.0078 67.4789 53.9022 67.3239 53.7342 67.1961C53.5663 67.0695 53.362 67.006 53.1221 67.006C52.8822 67.006 52.682 67.0695 52.5218 67.1961C52.3603 67.3239 52.2559 67.4933 52.2078 67.7043C52.1647 67.8868 52.1428 68.1293 52.1428 68.4316C52.1428 68.7486 52.1647 68.9932 52.2078 69.1662C52.2559 69.382 52.3603 69.5534 52.5218 69.68C52.682 69.8078 52.8822 69.8716 53.1221 69.8716C53.3573 69.8716 53.5604 69.8102 53.7313 69.6874C53.9013 69.5655 54.0078 69.4085 54.0509 69.2164V69.1877L54.0583 69.1588C54.063 69.111 54.0916 69.0918 54.1445 69.1013L54.4975 69.1588C54.5452 69.1685 54.5671 69.1948 54.5621 69.2382L54.5334 69.382C54.4614 69.6605 54.2959 69.886 54.0364 70.059C53.7773 70.2317 53.4724 70.3181 53.1221 70.3181ZM56.8447 70.3181C56.4991 70.3181 56.2025 70.2278 55.9546 70.0475C55.7078 69.8677 55.539 69.6246 55.4478 69.3173C55.3855 69.106 55.3542 68.8085 55.3542 68.4245C55.3542 68.0789 55.3855 67.7862 55.4478 67.5462C55.5343 67.2484 55.7022 67.0093 55.9519 66.829C56.2013 66.6493 56.4991 66.5595 56.8447 66.5595C57.195 66.5595 57.4984 66.6484 57.7546 66.826C58.0119 67.0037 58.179 67.2245 58.2558 67.4883C58.2799 67.5748 58.2941 67.6468 58.2991 67.7043V67.7188C58.2991 67.7525 58.2776 67.774 58.2342 67.7837L57.8741 67.8339H57.8599C57.8263 67.8339 57.8048 67.8124 57.795 67.7693L57.7735 67.6613C57.7301 67.4789 57.6247 67.3239 57.4565 67.1961C57.2886 67.0695 57.0847 67.006 56.8447 67.006C56.6047 67.006 56.404 67.0695 56.2426 67.1961C56.0823 67.3239 55.9781 67.4933 55.9303 67.7043C55.8869 67.8868 55.8654 68.1293 55.8654 68.4316C55.8654 68.7486 55.8869 68.9932 55.9303 69.1662C55.9781 69.382 56.0823 69.5534 56.2426 69.68C56.404 69.8078 56.6047 69.8716 56.8447 69.8716C57.0799 69.8716 57.2824 69.8102 57.4524 69.6874C57.6233 69.5655 57.7301 69.4085 57.7735 69.2164V69.1877L57.7806 69.1588C57.7853 69.111 57.8142 69.0918 57.867 69.1013L58.2197 69.1588C58.2679 69.1685 58.2894 69.1948 58.2847 69.2382L58.2558 69.382C58.1838 69.6605 58.0181 69.886 57.7591 70.059C57.4999 70.2317 57.195 70.3181 56.8447 70.3181ZM61.9854 67.8269C62.0046 67.9611 62.0144 68.1293 62.0144 68.3309V68.5611C62.0144 68.6093 61.9904 68.6331 61.9423 68.6331H59.6166C59.5975 68.6331 59.588 68.6429 59.588 68.6621C59.5975 68.9259 59.6119 69.0965 59.6311 69.1733C59.6839 69.3893 59.7966 69.5596 59.9696 69.6844C60.1423 69.8093 60.363 69.8716 60.6319 69.8716C60.8335 69.8716 61.0112 69.8262 61.1646 69.7349C61.3184 69.6437 61.4382 69.5142 61.5247 69.3459C61.5536 69.3029 61.587 69.2934 61.6256 69.3173L61.9063 69.4829C61.9447 69.5068 61.9544 69.5404 61.9352 69.5838C61.8151 69.814 61.6351 69.9949 61.3952 70.1266C61.1552 70.2591 60.879 70.3252 60.567 70.3252C60.2264 70.3204 59.9407 70.239 59.7102 70.0806C59.48 69.922 59.3141 69.7013 59.2135 69.4179C59.127 69.1877 59.0839 68.8566 59.0839 68.4245C59.0839 68.2229 59.0872 68.0582 59.0939 67.9305C59.1016 67.8038 59.1199 67.6899 59.1485 67.5893C59.2303 67.2773 59.3944 67.0276 59.6411 66.8405C59.8887 66.6534 60.188 66.5595 60.5384 66.5595C60.9752 66.5595 61.311 66.6699 61.5463 66.891C61.7815 67.1118 61.9278 67.4237 61.9854 67.8269ZM60.5384 67.006C60.3031 67.006 60.1072 67.0669 59.9507 67.189C59.7952 67.3118 59.6934 67.4765 59.6455 67.6828C59.6166 67.7837 59.5975 67.9469 59.588 68.1725C59.588 68.1917 59.5975 68.2014 59.6166 68.2014H61.4816C61.5008 68.2014 61.5102 68.1917 61.5102 68.1725C61.5008 67.9564 61.4864 67.8029 61.4672 67.7117C61.4143 67.4957 61.3072 67.3239 61.1461 67.1961C60.9858 67.0695 60.783 67.006 60.5384 67.006ZM64.1585 70.2966C63.8896 70.2966 63.6512 70.2532 63.4428 70.167C63.2336 70.0806 63.0727 69.9654 62.9602 69.8214C62.8472 69.6774 62.7905 69.5165 62.7905 69.3388V69.2524C62.7905 69.2046 62.8145 69.1804 62.8625 69.1804H63.2082C63.256 69.1804 63.2802 69.2046 63.2802 69.2524V69.3102C63.2802 69.4684 63.3631 69.6062 63.5293 69.7234C63.6943 69.8415 63.9017 69.9005 64.1514 69.9005C64.4008 69.9005 64.6024 69.8438 64.7562 69.7305C64.9096 69.6184 64.9864 69.4758 64.9864 69.3029C64.9864 69.183 64.9471 69.0844 64.8683 69.0077C64.7887 68.931 64.6951 68.8708 64.5876 68.8277C64.479 68.7846 64.312 68.7294 64.0865 68.6621C63.8176 68.5854 63.5969 68.5083 63.4242 68.4316C63.2513 68.3549 63.1064 68.2477 62.9892 68.1104C62.8712 67.9741 62.8121 67.8006 62.8121 67.5893C62.8121 67.2821 62.9322 67.0373 63.1722 66.8549C63.4121 66.6725 63.7288 66.5814 64.1225 66.5814C64.3863 66.5814 64.6207 66.6244 64.8252 66.7109C65.0289 66.7971 65.1856 66.9158 65.296 67.0666C65.4066 67.2183 65.4619 67.3877 65.4619 67.5748V67.5964C65.4619 67.6444 65.4376 67.6684 65.3899 67.6684H65.0513C65.0032 67.6684 64.9793 67.6444 64.9793 67.5964V67.5748C64.9793 67.4116 64.9017 67.275 64.7461 67.1646C64.5894 67.0542 64.3793 66.9987 64.1154 66.9987C63.8704 66.9987 63.6736 67.0477 63.5249 67.1457C63.3761 67.2446 63.3017 67.3803 63.3017 67.5532C63.3017 67.7165 63.3737 67.8413 63.5178 67.9278C63.6618 68.014 63.885 68.1005 64.1875 68.1869C64.4657 68.2684 64.6913 68.3451 64.8642 68.4171C65.0369 68.4891 65.1856 68.5933 65.3105 68.7297C65.4353 68.8669 65.4978 69.046 65.4978 69.2668C65.4978 69.5788 65.3754 69.8285 65.1304 70.0156C64.8858 70.203 64.5617 70.2966 64.1585 70.2966ZM67.5137 70.2966C67.2451 70.2966 67.0063 70.2532 66.7979 70.167C66.5887 70.0806 66.4279 69.9654 66.3157 69.8214C66.2024 69.6774 66.1457 69.5165 66.1457 69.3388V69.2524C66.1457 69.2046 66.1696 69.1804 66.2177 69.1804H66.5633C66.6115 69.1804 66.6353 69.2046 66.6353 69.2524V69.3102C66.6353 69.4684 66.7183 69.6062 66.8844 69.7234C67.0497 69.8415 67.2569 69.9005 67.5066 69.9005C67.7563 69.9005 67.9579 69.8438 68.1113 69.7305C68.2651 69.6184 68.3418 69.4758 68.3418 69.3029C68.3418 69.183 68.3023 69.0844 68.2237 69.0077C68.1441 68.931 68.0505 68.8708 67.9428 68.8277C67.8345 68.7846 67.6674 68.7294 67.4417 68.6621C67.1731 68.5854 66.952 68.5083 66.7793 68.4316C66.6064 68.3549 66.4615 68.2477 66.3443 68.1104C66.2263 67.9741 66.1673 67.8006 66.1673 67.5893C66.1673 67.2821 66.2874 67.0373 66.5273 66.8549C66.7672 66.6725 67.0842 66.5814 67.4776 66.5814C67.7418 66.5814 67.9761 66.6244 68.1804 66.7109C68.3841 66.7971 68.5411 66.9158 68.6515 67.0666C68.7618 67.2183 68.817 67.3877 68.817 67.5748V67.5964C68.817 67.6444 68.7931 67.6684 68.745 67.6684H68.4064C68.3587 67.6684 68.3344 67.6444 68.3344 67.5964V67.5748C68.3344 67.4116 68.2568 67.275 68.1013 67.1646C67.9449 67.0542 67.7344 66.9987 67.4706 66.9987C67.2256 66.9987 67.029 67.0477 66.8803 67.1457C66.7313 67.2446 66.6569 67.3803 66.6569 67.5532C66.6569 67.7165 66.7289 67.8413 66.873 67.9278C67.017 68.014 67.2401 68.1005 67.5426 68.1869C67.8209 68.2684 68.0467 68.3451 68.2194 68.4171C68.3923 68.4891 68.5411 68.5933 68.6659 68.7297C68.7904 68.8669 68.853 69.046 68.853 69.2668C68.853 69.5788 68.7305 69.8285 68.4858 70.0156C68.2409 70.203 67.9168 70.2966 67.5137 70.2966ZM72.8563 66.9701C72.8563 67.0181 72.8324 67.0421 72.7843 67.0421H71.9705C71.9513 67.0421 71.9419 67.0515 71.9419 67.0707V69.1948C71.9419 69.4253 71.9933 69.587 72.096 69.68C72.1996 69.7742 72.3619 69.8214 72.5827 69.8214H72.7627C72.8105 69.8214 72.8347 69.8453 72.8347 69.8934V70.1885C72.8347 70.2364 72.8105 70.2606 72.7627 70.2606C72.7052 70.2653 72.6163 70.2676 72.4962 70.2676C72.1506 70.2676 71.8891 70.203 71.7115 70.0731C71.5337 69.9436 71.4449 69.7036 71.4449 69.3533V67.0707C71.4449 67.0515 71.4354 67.0421 71.4163 67.0421H70.9771C70.929 67.0421 70.9051 67.0181 70.9051 66.9701V66.6891C70.9051 66.6413 70.929 66.6174 70.9771 66.6174H71.4163C71.4354 66.6174 71.4449 66.6076 71.4449 66.5885V65.7532C71.4449 65.7051 71.4691 65.6812 71.5169 65.6812H71.8699C71.9177 65.6812 71.9419 65.7051 71.9419 65.7532V66.5885C71.9419 66.6076 71.9513 66.6174 71.9705 66.6174H72.7843C72.8324 66.6174 72.8563 66.6413 72.8563 66.6891V66.9701ZM75.1229 70.3181C74.7773 70.3181 74.4795 70.2292 74.2302 70.0516C73.9805 69.8742 73.8075 69.6293 73.7116 69.3173C73.6443 69.0965 73.6109 68.8014 73.6109 68.4316C73.6109 68.0621 73.6443 67.7693 73.7116 67.5532C73.8028 67.246 73.9734 67.0037 74.2228 66.826C74.4725 66.6484 74.7749 66.5595 75.13 66.5595C75.4709 66.5595 75.7652 66.6484 76.0128 66.826C76.2595 67.0037 76.4283 67.2437 76.5195 67.5462C76.5868 67.7525 76.6204 68.0476 76.6204 68.4316C76.6204 68.8206 76.5868 69.1157 76.5195 69.3173C76.4283 69.6293 76.2595 69.8742 76.0128 70.0516C75.7652 70.2292 75.4685 70.3181 75.1229 70.3181ZM75.1229 69.8716C75.3532 69.8716 75.55 69.8078 75.7132 69.68C75.8765 69.5534 75.9868 69.382 76.0443 69.1662C76.0877 68.9932 76.1093 68.7509 76.1093 68.439C76.1093 68.122 76.0901 67.8797 76.0517 67.7117C75.9942 67.4957 75.8826 67.3239 75.7176 67.1961C75.5515 67.0695 75.3508 67.006 75.1155 67.006C74.8803 67.006 74.6811 67.0695 74.5179 67.1961C74.3547 67.3239 74.2443 67.4957 74.1867 67.7117C74.1483 67.8797 74.1292 68.122 74.1292 68.439C74.1292 68.7557 74.1483 68.998 74.1867 69.1662C74.2396 69.382 74.3491 69.5534 74.5152 69.68C74.6803 69.8078 74.883 69.8716 75.1229 69.8716ZM80.4726 70.3181C80.127 70.3181 79.8304 70.2278 79.5825 70.0475C79.3358 69.8677 79.1669 69.6246 79.0757 69.3173C79.0134 69.106 78.9822 68.8085 78.9822 68.4245C78.9822 68.0789 79.0134 67.7862 79.0757 67.5462C79.1622 67.2484 79.3302 67.0093 79.5798 66.829C79.8292 66.6493 80.127 66.5595 80.4726 66.5595C80.8229 66.5595 81.1264 66.6484 81.3826 66.826C81.6399 67.0037 81.807 67.2245 81.8837 67.4883C81.9079 67.5748 81.922 67.6468 81.9271 67.7043V67.7188C81.9271 67.7525 81.9053 67.774 81.8621 67.7837L81.5021 67.8339H81.4879C81.4543 67.8339 81.4324 67.8124 81.423 67.7693L81.4015 67.6613C81.358 67.4789 81.2527 67.3239 81.0844 67.1961C80.9165 67.0695 80.7125 67.006 80.4726 67.006C80.2327 67.006 80.032 67.0695 79.8705 67.1961C79.7103 67.3239 79.6061 67.4933 79.558 67.7043C79.5149 67.8868 79.4934 68.1293 79.4934 68.4316C79.4934 68.7486 79.5149 68.9932 79.558 69.1662C79.6061 69.382 79.7103 69.5534 79.8705 69.68C80.032 69.8078 80.2327 69.8716 80.4726 69.8716C80.7078 69.8716 80.9103 69.8102 81.0803 69.6874C81.2512 69.5655 81.358 69.4085 81.4015 69.2164V69.1877L81.4085 69.1588C81.4132 69.111 81.4422 69.0918 81.495 69.1013L81.8477 69.1588C81.8958 69.1685 81.9173 69.1948 81.9126 69.2382L81.8837 69.382C81.8116 69.6605 81.6461 69.886 81.3869 70.059C81.1279 70.2317 80.8229 70.3181 80.4726 70.3181ZM84.1013 66.5595C84.5335 66.5595 84.867 66.6699 85.1022 66.891C85.3374 67.1118 85.4552 67.4045 85.4552 67.7693V70.1885C85.4552 70.2364 85.431 70.2606 85.3832 70.2606H85.0157C84.9679 70.2606 84.9436 70.2364 84.9436 70.1885V69.8934C84.9436 69.8837 84.9399 69.8766 84.9322 69.8716C84.9257 69.8669 84.9174 69.8692 84.9077 69.879C84.7878 70.023 84.6317 70.1319 84.4398 70.2057C84.2477 70.2806 84.034 70.3181 83.7991 70.3181C83.4582 70.3181 83.1725 70.2317 82.942 70.059C82.7118 69.886 82.5964 69.6222 82.5964 69.2668C82.5964 68.9068 82.7271 68.6223 82.9883 68.413C83.2505 68.2047 83.6141 68.1005 84.0798 68.1005H84.915C84.9342 68.1005 84.9436 68.091 84.9436 68.0715V67.7979C84.9436 67.5532 84.8752 67.36 84.738 67.2177C84.6016 67.0766 84.3894 67.006 84.1013 67.006C83.8708 67.006 83.6838 67.0503 83.5397 67.1386C83.3957 67.2277 83.3068 67.3517 83.2735 67.5102C83.2591 67.558 83.2301 67.5795 83.187 67.5748L82.7983 67.5244C82.7455 67.5149 82.7237 67.4957 82.7334 67.4668C82.7717 67.1979 82.9158 66.9795 83.1655 66.8116C83.4149 66.6436 83.7271 66.5595 84.1013 66.5595ZM83.8998 69.879C84.1831 69.879 84.4278 69.8078 84.6341 69.6658C84.8407 69.5248 84.9436 69.3341 84.9436 69.0942V68.5325C84.9436 68.5133 84.9342 68.5036 84.915 68.5036H84.1589C83.8422 68.5036 83.5878 68.5685 83.3957 68.6981C83.2038 68.8277 83.1079 69.0077 83.1079 69.2382C83.1079 69.4492 83.1808 69.6086 83.3266 69.716C83.4736 69.8246 83.6646 69.879 83.8998 69.879ZM89.3489 67.5244C89.4209 67.7548 89.457 68.0597 89.457 68.439C89.457 68.8229 89.4257 69.1205 89.3634 69.3318C89.2769 69.639 89.1199 69.8798 88.8923 70.0546C88.6639 70.2302 88.3767 70.3181 88.0312 70.3181C87.844 70.3181 87.6713 70.2806 87.5128 70.2057C87.3544 70.1319 87.2225 70.0253 87.1168 69.886C87.1073 69.8766 87.0991 69.8728 87.0923 69.8745C87.0846 69.8775 87.0808 69.8837 87.0808 69.8934V71.5855C87.0808 71.6332 87.0569 71.6575 87.0087 71.6575H86.6416C86.5935 71.6575 86.5696 71.6332 86.5696 71.5855V66.6891C86.5696 66.6413 86.5935 66.6174 86.6416 66.6174H87.0087C87.0569 66.6174 87.0808 66.6413 87.0808 66.6891V66.9916C87.0808 67.0014 87.0846 67.007 87.0923 67.009C87.0991 67.0117 87.1073 67.0085 87.1168 66.9987C87.2225 66.8597 87.3535 66.7517 87.5099 66.6749C87.6655 66.5979 87.8393 66.5595 88.0312 66.5595C88.3673 66.5595 88.6494 66.646 88.8779 66.819C89.1054 66.9916 89.2625 67.2268 89.3489 67.5244ZM88.7799 69.3459C88.8327 69.2406 88.8725 69.1213 88.8994 68.9888C88.9254 68.8575 88.9383 68.6742 88.9383 68.439C88.9383 68.2132 88.929 68.037 88.9098 67.9104C88.8906 67.7826 88.8569 67.6684 88.8088 67.5677C88.7513 67.3948 88.6494 67.2581 88.5037 67.1572C88.3566 67.0565 88.1826 67.006 87.981 67.006C87.7888 67.006 87.628 67.0565 87.4984 67.1572C87.3688 67.2581 87.2729 67.3924 87.2103 67.5603C87.1673 67.6566 87.136 67.7693 87.1168 67.8989C87.0976 68.0285 87.0878 68.2084 87.0878 68.439C87.0878 68.6692 87.0976 68.8501 87.1168 68.9818C87.136 69.1143 87.1696 69.2309 87.2177 69.3318C87.2753 69.495 87.3703 69.6254 87.5028 69.7234C87.6342 69.8223 87.7912 69.8716 87.9736 69.8716C88.1657 69.8716 88.3328 69.8237 88.4747 69.7276C88.6158 69.6316 88.7176 69.5044 88.7799 69.3459ZM90.8394 65.9548C90.724 65.9548 90.6281 65.9164 90.5513 65.8397C90.4746 65.7629 90.4359 65.6667 90.4359 65.5516C90.4359 65.4315 90.4746 65.3341 90.5513 65.2591C90.6281 65.1854 90.724 65.1484 90.8394 65.1484C90.9545 65.1484 91.0504 65.1854 91.1271 65.2591C91.2042 65.3341 91.2426 65.4315 91.2426 65.5516C91.2426 65.6667 91.2042 65.7629 91.1271 65.8397C91.0504 65.9164 90.9545 65.9548 90.8394 65.9548ZM90.6378 70.2532C90.5897 70.2532 90.5658 70.2292 90.5658 70.1812V66.682C90.5658 66.6339 90.5897 66.61 90.6378 66.61H91.0049C91.0528 66.61 91.0769 66.6339 91.0769 66.682V70.1812C91.0769 70.2292 91.0528 70.2532 91.0049 70.2532H90.6378ZM93.964 66.9701C93.964 67.0181 93.9401 67.0421 93.892 67.0421H93.0786C93.0594 67.0421 93.0497 67.0515 93.0497 67.0707V69.1948C93.0497 69.4253 93.101 69.587 93.2038 69.68C93.3076 69.7742 93.4696 69.8214 93.6904 69.8214H93.8705C93.9186 69.8214 93.9425 69.8453 93.9425 69.8934V70.1885C93.9425 70.2364 93.9186 70.2606 93.8705 70.2606C93.8129 70.2653 93.724 70.2676 93.6042 70.2676C93.2586 70.2676 92.9968 70.203 92.8192 70.0731C92.6418 69.9436 92.5529 69.7036 92.5529 69.3533V67.0707C92.5529 67.0515 92.5432 67.0421 92.5241 67.0421H92.0849C92.0367 67.0421 92.0128 67.0181 92.0128 66.9701V66.6891C92.0128 66.6413 92.0367 66.6174 92.0849 66.6174H92.5241C92.5432 66.6174 92.5529 66.6076 92.5529 66.5885V65.7532C92.5529 65.7051 92.5769 65.6812 92.6249 65.6812H92.9776C93.0257 65.6812 93.0497 65.7051 93.0497 65.7532V66.5885C93.0497 66.6076 93.0594 66.6174 93.0786 66.6174H93.892C93.9401 66.6174 93.964 66.6413 93.964 66.6891V66.9701ZM96.2106 66.5595C96.6427 66.5595 96.9762 66.6699 97.2114 66.891C97.4457 67.1118 97.5626 67.4045 97.5626 67.7693V70.1885C97.5626 70.2364 97.5388 70.2606 97.4906 70.2606H97.1249C97.0768 70.2606 97.0529 70.2364 97.0529 70.1885V69.8934C97.0529 69.8837 97.0491 69.8766 97.0414 69.8716C97.0346 69.8669 97.0266 69.8692 97.0169 69.879C96.8971 70.023 96.741 70.1319 96.5488 70.2057C96.357 70.2806 96.143 70.3181 95.9066 70.3181C95.5669 70.3181 95.2818 70.2317 95.0513 70.059C94.8199 69.886 94.7042 69.6222 94.7042 69.2668C94.7042 68.9068 94.8352 68.6223 95.0973 68.413C95.3594 68.2047 95.7233 68.1005 96.189 68.1005H97.0228C97.0429 68.1005 97.0529 68.091 97.0529 68.0715V67.7979C97.0529 67.5532 96.9845 67.36 96.8469 67.2177C96.7109 67.0766 96.4987 67.006 96.2106 67.006C95.9801 67.006 95.793 67.0503 95.649 67.1386C95.505 67.2277 95.4161 67.3517 95.3825 67.5102C95.3683 67.558 95.3387 67.5795 95.2948 67.5748L94.9072 67.5244C94.8536 67.5149 94.832 67.4957 94.8426 67.4668C94.8801 67.1979 95.0238 66.9795 95.2744 66.8116C95.5241 66.6436 95.836 66.5595 96.2106 66.5595ZM96.0091 69.879C96.2912 69.879 96.5361 69.8078 96.7433 69.6658C96.9497 69.5248 97.0529 69.3341 97.0529 69.0942V68.5325C97.0529 68.5133 97.0429 68.5036 97.0228 68.5036H96.2667C95.9509 68.5036 95.6971 68.5685 95.505 68.6981C95.3131 68.8277 95.2169 69.0077 95.2169 69.2382C95.2169 69.4492 95.2898 69.6086 95.4359 69.716C95.5816 69.8246 95.7729 69.879 96.0091 69.879ZM98.7004 70.2606C98.6523 70.2606 98.6283 70.2364 98.6283 70.1885V65.2925C98.6283 65.2444 98.6523 65.2204 98.7004 65.2204H99.0675C99.1157 65.2204 99.1395 65.2444 99.1395 65.2925V70.1885C99.1395 70.2364 99.1157 70.2606 99.0675 70.2606H98.7004Z" fill="#353535"/>
</g>
<mask id="mask2_9_3630" style="mask-type:luminance" maskUnits="userSpaceOnUse" x="30" y="27" width="15" height="16">
<path d="M30.4141 27.9219H44.5798V42.1009H30.4141V27.9219Z" fill="white"/>
</mask>
<g mask="url(#mask2_9_3630)">
<path d="M30.4141 27.9453H44.5716V42.1028H30.4141V27.9453Z" fill="#0000BF"/>
</g>
<path d="M55.6335 20.5703L44.7798 27.3544H31.1406L41.9961 20.5703H55.6335Z" fill="#0000BF"/>
<path d="M68.1615 27.4821L45.1562 41.8628V27.8109L68.1615 13.4297V27.4821Z" fill="#0000BF"/>
<path d="M68.5371 27.9453H82.1808L71.3253 34.7291H57.6875L68.5371 27.9453Z" fill="#0000BF"/>
<mask id="mask3_9_3630" style="mask-type:luminance" maskUnits="userSpaceOnUse" x="68" y="13" width="15" height="15">
<path d="M68.6797 13.1953H82.9134V27.3927H68.6797V13.1953Z" fill="white"/>
</mask>
<g mask="url(#mask3_9_3630)">
<path d="M68.7578 13.1953H82.9162V27.3531H68.7578V13.1953Z" fill="#0000BF"/>
</g>
</g>
<defs>
<clipPath id="clip0_9_3630">
<rect width="113.333" height="85" fill="white" transform="translate(0 0.0390625)"/>
</clipPath>
</defs>
</svg>
