<svg width="201" height="151" viewBox="0 0 201 151" fill="none" xmlns="http://www.w3.org/2000/svg">
<g clip-path="url(#clip0_9_5820)">
<mask id="mask0_9_5820" style="mask-type:luminance" maskUnits="userSpaceOnUse" x="25" y="81" width="151" height="29">
<path d="M25.5312 81.7031H175.451V109.337H25.5312V81.7031Z" fill="white"/>
</mask>
<g mask="url(#mask0_9_5820)">
<path d="M25.5391 109.028V81.9734H30.0219L45.6751 103.424L44.5156 103.81V81.9734H48.9989V109.028H44.5156L28.9011 87.6161L30.0995 87.2297V109.028H25.5391ZM68.2459 81.7031C70.2557 81.7031 72.1287 82.051 73.8656 82.7469C75.6073 83.4422 77.1276 84.4213 78.4261 85.6838C79.7297 86.9463 80.7475 88.4073 81.4792 90.0666C82.2161 91.7313 82.5849 93.5297 82.5849 95.4619C82.5849 97.3947 82.2161 99.2031 81.4792 100.888C80.7475 102.579 79.7297 104.055 78.4261 105.318C77.1276 106.58 75.6073 107.565 73.8656 108.27C72.1287 108.982 70.2557 109.337 68.2459 109.337C66.236 109.337 64.3604 108.982 62.6188 108.27C60.8819 107.565 59.362 106.58 58.0579 105.318C56.7595 104.055 55.7417 102.579 55.0047 100.888C54.2729 99.2031 53.9073 97.3947 53.9073 95.4619C53.9073 93.5297 54.2729 91.7261 55.0047 90.051C55.7417 88.3766 56.7595 86.913 58.0579 85.6609C59.362 84.4135 60.8819 83.4422 62.6188 82.7469C64.3604 82.051 66.236 81.7031 68.2459 81.7031ZM68.2844 85.5682C66.9448 85.5682 65.6876 85.8177 64.5125 86.3177C63.3428 86.8229 62.3068 87.5261 61.4052 88.4281C60.5032 89.3297 59.8 90.3786 59.2948 91.5739C58.7948 92.775 58.5448 94.0709 58.5448 95.4619C58.5448 96.8537 58.8027 98.1546 59.3183 99.3655C59.8333 100.577 60.5417 101.638 61.4437 102.55C62.3453 103.468 63.3813 104.184 64.5511 104.699C65.7261 105.215 66.9704 105.472 68.2844 105.472C69.5985 105.472 70.8407 105.215 72.0104 104.699C73.1855 104.184 74.2109 103.468 75.0871 102.55C75.9631 101.638 76.6505 100.577 77.1505 99.3655C77.6557 98.1546 77.9084 96.8537 77.9084 95.4619C77.9084 94.0709 77.6557 92.775 77.1505 91.5739C76.6505 90.3786 75.9631 89.3297 75.0871 88.4281C74.2109 87.5261 73.1855 86.8229 72.0104 86.3177C70.8407 85.8177 69.5985 85.5682 68.2844 85.5682ZM94.7901 109.028L84.0147 81.9734H88.9156L97.2636 104.235L105.697 81.9734H110.443L99.5131 109.028H94.7901ZM110.597 109.028L122.54 81.9734H127.217L139.043 109.028H134.173L124.743 86.5729L115.351 109.028H110.597ZM116.549 102.767V98.9021H132.743V102.767H116.549ZM159.952 95.1531L150.792 81.9734H156.088L162.696 91.5974L169.344 81.9734H174.678L165.595 94.9599L175.451 109.028H170.001L162.696 98.5927L155.43 109.028H150.097L159.952 95.1531Z" fill="white"/>
</g>
<mask id="mask1_9_5820" style="mask-type:luminance" maskUnits="userSpaceOnUse" x="25" y="115" width="151" height="13">
<path d="M25.5312 115.867H175.451V127.417H25.5312V115.867Z" fill="white"/>
</mask>
<g mask="url(#mask1_9_5820)">
<path d="M25.6663 124.889C25.5819 124.889 25.5391 124.846 25.5391 124.761V116.121C25.5391 116.037 25.5819 115.994 25.6663 115.994H26.3141C26.3991 115.994 26.4412 116.037 26.4412 116.121V124.761C26.4412 124.846 26.3991 124.889 26.3141 124.889H25.6663ZM31.3204 118.37C31.998 118.37 32.5376 118.569 32.9391 118.967C33.3423 119.366 33.5443 119.899 33.5443 120.568V124.761C33.5443 124.846 33.5016 124.889 33.4172 124.889H32.7688C32.6844 124.889 32.6417 124.846 32.6417 124.761V120.746C32.6417 120.28 32.4996 119.899 32.2152 119.603C31.9324 119.306 31.5663 119.158 31.1172 119.158C30.6511 119.158 30.2745 119.302 29.9865 119.59C29.6985 119.878 29.5543 120.255 29.5543 120.721V124.761C29.5543 124.846 29.512 124.889 29.4272 124.889H28.7792C28.6943 124.889 28.6521 124.846 28.6521 124.761V118.586C28.6521 118.502 28.6943 118.459 28.7792 118.459H29.4272C29.512 118.459 29.5543 118.502 29.5543 118.586V119.132C29.5543 119.15 29.5605 119.162 29.5719 119.171C29.5855 119.179 29.5969 119.175 29.6052 119.158C29.9776 118.633 30.5496 118.37 31.3204 118.37ZM38.1693 118.37C38.8469 118.37 39.3865 118.569 39.7881 118.967C40.1912 119.366 40.3928 119.899 40.3928 120.568V124.761C40.3928 124.846 40.35 124.889 40.2657 124.889H39.6177C39.5329 124.889 39.4907 124.846 39.4907 124.761V120.746C39.4907 120.28 39.348 119.899 39.0636 119.603C38.7808 119.306 38.4147 119.158 37.9657 119.158C37.5 119.158 37.1229 119.302 36.8349 119.59C36.5469 119.878 36.4032 120.255 36.4032 120.721V124.761C36.4032 124.846 36.3605 124.889 36.2761 124.889H35.6276C35.5433 124.889 35.5005 124.846 35.5005 124.761V118.586C35.5005 118.502 35.5433 118.459 35.6276 118.459H36.2761C36.3605 118.459 36.4032 118.502 36.4032 118.586V119.132C36.4032 119.15 36.4089 119.162 36.4209 119.171C36.4344 119.179 36.4453 119.175 36.4537 119.158C36.8267 118.633 37.3985 118.37 38.1693 118.37ZM44.71 124.99C44.1 124.99 43.5751 124.833 43.1344 124.52C42.6943 124.207 42.3891 123.775 42.2199 123.224C42.1011 122.834 42.0417 122.314 42.0417 121.661C42.0417 121.009 42.1011 120.492 42.2199 120.111C42.3808 119.569 42.6813 119.141 43.122 118.828C43.5625 118.514 44.0959 118.357 44.7229 118.357C45.3245 118.357 45.8439 118.514 46.2808 118.828C46.7163 119.141 47.0141 119.565 47.1751 120.099C47.2939 120.463 47.3532 120.983 47.3532 121.661C47.3532 122.347 47.2939 122.868 47.1751 123.224C47.0141 123.775 46.7163 124.207 46.2808 124.52C45.8439 124.833 45.3199 124.99 44.71 124.99ZM44.71 124.202C45.1167 124.202 45.4641 124.09 45.7521 123.864C46.0401 123.641 46.2349 123.338 46.3365 122.957C46.4125 122.652 46.4511 122.225 46.4511 121.674C46.4511 121.115 46.4172 120.687 46.3496 120.391C46.2475 120.009 46.0511 119.706 45.76 119.481C45.4667 119.257 45.1125 119.145 44.6975 119.145C44.2824 119.145 43.9308 119.257 43.6428 119.481C43.3548 119.706 43.16 120.009 43.0584 120.391C42.9907 120.687 42.9568 121.115 42.9568 121.674C42.9568 122.233 42.9907 122.661 43.0584 122.957C43.1516 123.338 43.3448 123.641 43.6376 123.864C43.9292 124.09 44.2865 124.202 44.71 124.202ZM50.5677 124.889C50.4917 124.889 50.4407 124.855 50.4152 124.787L48.3313 118.599L48.3188 118.548C48.3188 118.489 48.3568 118.459 48.4329 118.459H49.1573C49.2333 118.459 49.2844 118.493 49.31 118.561L50.898 123.542C50.9063 123.558 50.9193 123.567 50.936 123.567C50.9532 123.567 50.9657 123.558 50.9745 123.542L52.5625 118.561C52.5881 118.493 52.6385 118.459 52.7152 118.459L53.4391 118.472C53.5324 118.472 53.5663 118.518 53.5407 118.611L51.4573 124.787C51.4319 124.855 51.3808 124.889 51.3048 124.889H50.5677ZM57.048 118.357C57.81 118.357 58.3991 118.552 58.8141 118.942C59.2292 119.332 59.4365 119.849 59.4365 120.492V124.761C59.4365 124.846 59.3943 124.889 59.3095 124.889H58.6615C58.5767 124.889 58.5344 124.846 58.5344 124.761V124.241C58.5344 124.223 58.5276 124.211 58.5141 124.202C58.5021 124.194 58.4881 124.198 58.4709 124.215C58.2589 124.469 57.9839 124.661 57.6448 124.792C57.3063 124.924 56.9292 124.99 56.5141 124.99C55.9125 124.99 55.4089 124.838 55.0021 124.533C54.5953 124.228 54.3923 123.762 54.3923 123.135C54.3923 122.5 54.6224 121.997 55.0833 121.628C55.5459 121.261 56.1881 121.077 57.01 121.077H58.4833C58.5172 121.077 58.5344 121.06 58.5344 121.026V120.543C58.5344 120.111 58.4131 119.77 58.1709 119.519C57.9303 119.27 57.5563 119.145 57.048 119.145C56.6412 119.145 56.3109 119.223 56.0568 119.379C55.8027 119.537 55.6459 119.755 55.5865 120.035C55.5609 120.119 55.5105 120.157 55.4339 120.149L54.748 120.06C54.6548 120.043 54.6167 120.009 54.6339 119.958C54.7016 119.484 54.9557 119.099 55.3959 118.802C55.8365 118.506 56.3871 118.357 57.048 118.357ZM56.6923 124.215C57.1917 124.215 57.624 124.09 57.9881 123.839C58.3521 123.59 58.5344 123.254 58.5344 122.83V121.839C58.5344 121.805 58.5172 121.788 58.4833 121.788H57.1496C56.5901 121.788 56.1412 121.903 55.8027 122.131C55.4636 122.36 55.2943 122.678 55.2943 123.084C55.2943 123.457 55.4229 123.738 55.6808 123.928C55.9396 124.119 56.2772 124.215 56.6923 124.215ZM64.1505 119.082C64.1505 119.167 64.1084 119.209 64.0235 119.209H62.5876C62.5537 119.209 62.5371 119.226 62.5371 119.259V123.008C62.5371 123.415 62.6276 123.7 62.8089 123.864C62.9917 124.03 63.2781 124.114 63.6677 124.114H63.9855C64.0699 124.114 64.1125 124.156 64.1125 124.241V124.761C64.1125 124.846 64.0699 124.889 63.9855 124.889C63.8839 124.897 63.7272 124.901 63.5152 124.901C62.9052 124.901 62.4439 124.787 62.1303 124.558C61.8167 124.329 61.66 123.906 61.66 123.288V119.259C61.66 119.226 61.6433 119.209 61.6095 119.209H60.8344C60.7496 119.209 60.7073 119.167 60.7073 119.082V118.586C60.7073 118.502 60.7496 118.459 60.8344 118.459H61.6095C61.6433 118.459 61.66 118.442 61.66 118.408V116.934C61.66 116.85 61.7027 116.807 61.7871 116.807H62.41C62.4943 116.807 62.5371 116.85 62.5371 116.934V118.408C62.5371 118.442 62.5537 118.459 62.5876 118.459H64.0235C64.1084 118.459 64.1505 118.502 64.1505 118.586V119.082ZM66.4985 117.29C66.2953 117.29 66.1261 117.222 65.9901 117.087C65.8548 116.952 65.7871 116.782 65.7871 116.579C65.7871 116.367 65.8548 116.195 65.9901 116.063C66.1261 115.932 66.2953 115.867 66.4985 115.867C66.7021 115.867 66.8715 115.932 67.0068 116.063C67.1423 116.195 67.21 116.367 67.21 116.579C67.21 116.782 67.1423 116.952 67.0068 117.087C66.8715 117.222 66.7021 117.29 66.4985 117.29ZM66.1428 124.876C66.0584 124.876 66.0157 124.833 66.0157 124.749V118.573C66.0157 118.489 66.0584 118.446 66.1428 118.446H66.7907C66.8756 118.446 66.9177 118.489 66.9177 118.573V124.749C66.9177 124.833 66.8756 124.876 66.7907 124.876H66.1428ZM71.7969 118.37C72.4745 118.37 73.0152 118.569 73.4183 118.967C73.8199 119.366 74.0204 119.899 74.0204 120.568V124.761C74.0204 124.846 73.9781 124.889 73.8939 124.889H73.2453C73.1609 124.889 73.1183 124.846 73.1183 124.761V120.746C73.1183 120.28 72.9772 119.899 72.6943 119.603C72.4095 119.306 72.0428 119.158 71.5939 119.158C71.1276 119.158 70.7511 119.302 70.4631 119.59C70.1751 119.878 70.0308 120.255 70.0308 120.721V124.761C70.0308 124.846 69.9887 124.889 69.9037 124.889H69.2557C69.1709 124.889 69.1287 124.846 69.1287 124.761V118.586C69.1287 118.502 69.1709 118.459 69.2557 118.459H69.9037C69.9887 118.459 70.0308 118.502 70.0308 118.586V119.132C70.0308 119.15 70.0376 119.162 70.0511 119.171C70.0631 119.179 70.0735 119.175 70.0819 119.158C70.4543 118.633 71.0261 118.37 71.7969 118.37ZM79.9417 118.586C79.9417 118.502 79.9839 118.459 80.0688 118.459H80.7167C80.8016 118.459 80.8439 118.502 80.8439 118.586V124.672C80.8439 125.621 80.5704 126.316 80.0229 126.756C79.4776 127.197 78.7261 127.417 77.7688 127.417C77.574 127.417 77.4261 127.413 77.324 127.404C77.2396 127.396 77.1969 127.349 77.1969 127.265L77.2224 126.68C77.2224 126.638 77.2355 126.606 77.2605 126.586C77.286 126.564 77.3157 126.557 77.3496 126.566L77.6928 126.578C78.4803 126.578 79.0521 126.424 79.4079 126.116C79.7636 125.806 79.9417 125.316 79.9417 124.647V124.177C79.9417 124.16 79.9349 124.149 79.9215 124.144C79.9095 124.141 79.8948 124.147 79.8781 124.164C79.4887 124.672 78.9333 124.927 78.2136 124.927C77.6631 124.927 77.1735 124.778 76.7448 124.482C76.3177 124.185 76.0324 123.766 75.8887 123.224C75.7865 122.877 75.736 122.36 75.736 121.674C75.736 121.301 75.7459 120.988 75.7663 120.733C75.7887 120.479 75.8333 120.251 75.9011 120.047C76.0537 119.539 76.3287 119.13 76.7272 118.82C77.1251 118.511 77.6037 118.357 78.1625 118.357C78.9167 118.357 79.4887 118.607 79.8781 119.107C79.8948 119.124 79.9095 119.128 79.9215 119.12C79.9349 119.111 79.9417 119.099 79.9417 119.082V118.586ZM79.8781 122.944C79.9037 122.817 79.9204 122.661 79.9287 122.475C79.9376 122.288 79.9417 122.017 79.9417 121.661C79.9417 121.229 79.9376 120.939 79.9287 120.79C79.9204 120.642 79.8996 120.505 79.8657 120.378C79.7975 120.022 79.6297 119.727 79.362 119.493C79.0964 119.261 78.76 119.145 78.3532 119.145C77.9553 119.145 77.6183 119.259 77.3423 119.489C77.0677 119.717 76.8751 120.014 76.7652 120.378C76.6803 120.649 76.6381 121.072 76.6381 121.649C76.6381 122.267 76.6803 122.694 76.7652 122.932C76.85 123.288 77.0339 123.581 77.3167 123.814C77.6011 124.047 77.9469 124.164 78.3532 124.164C78.7683 124.164 79.1089 124.05 79.3751 123.821C79.6428 123.592 79.8105 123.3 79.8781 122.944ZM87.5376 118.357C88.2996 118.357 88.8887 118.552 89.3037 118.942C89.7188 119.332 89.9261 119.849 89.9261 120.492V124.761C89.9261 124.846 89.8839 124.889 89.7991 124.889H89.1511C89.0663 124.889 89.024 124.846 89.024 124.761V124.241C89.024 124.223 89.0183 124.211 89.0063 124.202C88.9928 124.194 88.9772 124.198 88.9605 124.215C88.7485 124.469 88.4735 124.661 88.1344 124.792C87.7959 124.924 87.4188 124.99 87.0037 124.99C86.4021 124.99 85.8985 124.838 85.4917 124.533C85.0849 124.228 84.8819 123.762 84.8819 123.135C84.8819 122.5 85.1131 121.997 85.5756 121.628C86.0365 121.261 86.6776 121.077 87.4991 121.077H88.9729C89.0068 121.077 89.024 121.06 89.024 121.026V120.543C89.024 120.111 88.9037 119.77 88.6631 119.519C88.4209 119.27 88.0453 119.145 87.5376 119.145C87.1308 119.145 86.8005 119.223 86.5464 119.379C86.2923 119.537 86.1355 119.755 86.0761 120.035C86.0505 120.119 86 120.157 85.9235 120.149L85.2376 120.06C85.1443 120.043 85.1063 120.009 85.1229 119.958C85.1912 119.484 85.4448 119.099 85.8855 118.802C86.3261 118.506 86.8767 118.357 87.5376 118.357ZM87.1819 124.215C87.6813 124.215 88.1136 124.09 88.4776 123.839C88.8417 123.59 89.024 123.254 89.024 122.83V121.839C89.024 121.805 89.0068 121.788 88.9729 121.788H87.6391C87.0797 121.788 86.6308 121.903 86.2923 122.131C85.9532 122.36 85.7839 122.678 85.7839 123.084C85.7839 123.457 85.9136 123.738 86.1729 123.928C86.4303 124.119 86.7667 124.215 87.1819 124.215ZM94.2333 124.99C93.6235 124.99 93.1011 124.831 92.6657 124.513C92.2287 124.195 91.9292 123.766 91.7683 123.224C91.6584 122.851 91.6032 122.326 91.6032 121.649C91.6032 121.039 91.6584 120.522 91.7683 120.099C91.9209 119.573 92.2172 119.151 92.6579 118.833C93.0985 118.516 93.6235 118.357 94.2333 118.357C94.8516 118.357 95.3881 118.514 95.8423 118.828C96.2943 119.141 96.5887 119.531 96.724 119.996C96.7663 120.149 96.7917 120.276 96.8 120.378V120.403C96.8 120.463 96.762 120.501 96.686 120.518L96.0505 120.606H96.0251C95.9657 120.606 95.9276 120.568 95.9105 120.492L95.8724 120.302C95.7964 119.98 95.61 119.706 95.3136 119.481C95.0172 119.257 94.6568 119.145 94.2333 119.145C93.81 119.145 93.4568 119.257 93.174 119.481C92.8891 119.706 92.7048 120.005 92.6199 120.378C92.5439 120.7 92.5052 121.128 92.5052 121.661C92.5052 122.22 92.5439 122.652 92.6199 122.957C92.7048 123.338 92.8891 123.641 93.174 123.864C93.4568 124.09 93.81 124.202 94.2333 124.202C94.6485 124.202 95.0068 124.094 95.3084 123.877C95.6084 123.662 95.7964 123.385 95.8724 123.046V122.995L95.8855 122.944C95.8939 122.86 95.9443 122.826 96.0376 122.843L96.6605 122.944C96.7448 122.961 96.7833 123.008 96.7745 123.084L96.724 123.338C96.5969 123.83 96.3048 124.228 95.8469 124.533C95.3896 124.838 94.8516 124.99 94.2333 124.99ZM100.803 124.99C100.193 124.99 99.6693 124.831 99.2319 124.513C98.7964 124.195 98.4985 123.766 98.3376 123.224C98.2276 122.851 98.1724 122.326 98.1724 121.649C98.1724 121.039 98.2276 120.522 98.3376 120.099C98.4901 119.573 98.7865 119.151 99.2272 118.833C99.6672 118.516 100.193 118.357 100.803 118.357C101.421 118.357 101.956 118.514 102.408 118.828C102.863 119.141 103.157 119.531 103.293 119.996C103.335 120.149 103.361 120.276 103.369 120.378V120.403C103.369 120.463 103.331 120.501 103.255 120.518L102.619 120.606H102.594C102.535 120.606 102.497 120.568 102.48 120.492L102.442 120.302C102.365 119.98 102.179 119.706 101.882 119.481C101.586 119.257 101.226 119.145 100.803 119.145C100.379 119.145 100.025 119.257 99.7401 119.481C99.4573 119.706 99.2735 120.005 99.1891 120.378C99.1125 120.7 99.0745 121.128 99.0745 121.661C99.0745 122.22 99.1125 122.652 99.1891 122.957C99.2735 123.338 99.4573 123.641 99.7401 123.864C100.025 124.09 100.379 124.202 100.803 124.202C101.218 124.202 101.575 124.094 101.875 123.877C102.177 123.662 102.365 123.385 102.442 123.046V122.995L102.454 122.944C102.463 122.86 102.514 122.826 102.607 122.843L103.229 122.944C103.314 122.961 103.352 123.008 103.344 123.084L103.293 123.338C103.166 123.83 102.873 124.228 102.416 124.533C101.959 124.838 101.421 124.99 100.803 124.99ZM109.875 120.594C109.908 120.831 109.926 121.128 109.926 121.483V121.89C109.926 121.975 109.883 122.017 109.799 122.017H105.694C105.661 122.017 105.644 122.034 105.644 122.068C105.661 122.533 105.686 122.834 105.72 122.97C105.813 123.351 106.012 123.652 106.317 123.872C106.622 124.092 107.011 124.202 107.486 124.202C107.842 124.202 108.155 124.122 108.426 123.961C108.697 123.8 108.909 123.571 109.061 123.275C109.113 123.199 109.171 123.182 109.24 123.224L109.735 123.516C109.803 123.558 109.82 123.618 109.786 123.694C109.574 124.101 109.256 124.42 108.833 124.652C108.409 124.886 107.922 125.003 107.371 125.003C106.77 124.994 106.266 124.851 105.859 124.571C105.453 124.291 105.161 123.902 104.983 123.402C104.83 122.995 104.754 122.411 104.754 121.649C104.754 121.293 104.76 121.002 104.772 120.777C104.785 120.553 104.818 120.352 104.868 120.175C105.013 119.624 105.302 119.183 105.738 118.853C106.175 118.523 106.703 118.357 107.321 118.357C108.092 118.357 108.684 118.552 109.1 118.942C109.515 119.332 109.773 119.882 109.875 120.594ZM107.321 119.145C106.906 119.145 106.56 119.253 106.284 119.468C106.009 119.685 105.83 119.976 105.745 120.34C105.694 120.518 105.661 120.806 105.644 121.204C105.644 121.238 105.661 121.255 105.694 121.255H108.985C109.019 121.255 109.036 121.238 109.036 121.204C109.019 120.822 108.994 120.552 108.96 120.391C108.867 120.009 108.678 119.706 108.393 119.481C108.111 119.257 107.753 119.145 107.321 119.145ZM113.709 124.952C113.235 124.952 112.814 124.876 112.446 124.723C112.077 124.571 111.793 124.368 111.595 124.114C111.395 123.859 111.295 123.576 111.295 123.262V123.109C111.295 123.025 111.338 122.982 111.422 122.982H112.032C112.117 122.982 112.159 123.025 112.159 123.109V123.211C112.159 123.491 112.306 123.734 112.599 123.941C112.89 124.149 113.256 124.253 113.697 124.253C114.137 124.253 114.493 124.153 114.764 123.953C115.035 123.755 115.17 123.504 115.17 123.199C115.17 122.987 115.101 122.813 114.962 122.678C114.821 122.542 114.656 122.436 114.467 122.36C114.275 122.284 113.98 122.187 113.582 122.068C113.108 121.932 112.718 121.796 112.414 121.661C112.108 121.526 111.853 121.337 111.646 121.094C111.438 120.854 111.333 120.547 111.333 120.175C111.333 119.632 111.545 119.201 111.969 118.879C112.392 118.557 112.951 118.396 113.646 118.396C114.111 118.396 114.525 118.472 114.886 118.625C115.245 118.777 115.522 118.986 115.717 119.252C115.912 119.52 116.009 119.819 116.009 120.149V120.187C116.009 120.272 115.967 120.314 115.882 120.314H115.285C115.2 120.314 115.158 120.272 115.158 120.187V120.149C115.158 119.861 115.021 119.62 114.746 119.425C114.47 119.23 114.099 119.132 113.633 119.132C113.201 119.132 112.854 119.219 112.591 119.392C112.329 119.566 112.197 119.806 112.197 120.111C112.197 120.399 112.325 120.619 112.579 120.772C112.833 120.924 113.227 121.077 113.761 121.229C114.252 121.373 114.65 121.508 114.955 121.635C115.259 121.763 115.522 121.946 115.742 122.187C115.963 122.429 116.073 122.745 116.073 123.135C116.073 123.685 115.857 124.126 115.425 124.456C114.993 124.787 114.421 124.952 113.709 124.952ZM119.63 124.952C119.156 124.952 118.735 124.876 118.367 124.723C117.998 124.571 117.714 124.368 117.516 124.114C117.316 123.859 117.216 123.576 117.216 123.262V123.109C117.216 123.025 117.258 122.982 117.343 122.982H117.953C118.038 122.982 118.08 123.025 118.08 123.109V123.211C118.08 123.491 118.227 123.734 118.52 123.941C118.811 124.149 119.177 124.253 119.618 124.253C120.058 124.253 120.414 124.153 120.685 123.953C120.956 123.755 121.092 123.504 121.092 123.199C121.092 122.987 121.022 122.813 120.883 122.678C120.743 122.542 120.578 122.436 120.388 122.36C120.196 122.284 119.902 122.187 119.503 122.068C119.029 121.932 118.639 121.796 118.334 121.661C118.029 121.526 117.773 121.337 117.567 121.094C117.358 120.854 117.254 120.547 117.254 120.175C117.254 119.632 117.466 119.201 117.89 118.879C118.313 118.557 118.872 118.396 119.567 118.396C120.033 118.396 120.446 118.472 120.807 118.625C121.166 118.777 121.443 118.986 121.638 119.252C121.833 119.52 121.93 119.819 121.93 120.149V120.187C121.93 120.272 121.888 120.314 121.803 120.314H121.206C121.121 120.314 121.079 120.272 121.079 120.187V120.149C121.079 119.861 120.942 119.62 120.667 119.425C120.391 119.23 120.02 119.132 119.554 119.132C119.122 119.132 118.775 119.219 118.513 119.392C118.25 119.566 118.118 119.806 118.118 120.111C118.118 120.399 118.245 120.619 118.5 120.772C118.754 120.924 119.147 121.077 119.681 121.229C120.172 121.373 120.571 121.508 120.876 121.635C121.181 121.763 121.443 121.946 121.664 122.187C121.883 122.429 121.994 122.745 121.994 123.135C121.994 123.685 121.778 124.126 121.346 124.456C120.914 124.787 120.342 124.952 119.63 124.952ZM129.058 119.082C129.058 119.167 129.016 119.209 128.931 119.209H127.495C127.461 119.209 127.445 119.226 127.445 119.259V123.008C127.445 123.415 127.535 123.7 127.717 123.864C127.9 124.03 128.186 124.114 128.576 124.114H128.893C128.978 124.114 129.02 124.156 129.02 124.241V124.761C129.02 124.846 128.978 124.889 128.893 124.889C128.792 124.897 128.635 124.901 128.423 124.901C127.813 124.901 127.352 124.787 127.038 124.558C126.725 124.329 126.568 123.906 126.568 123.288V119.259C126.568 119.226 126.551 119.209 126.517 119.209H125.742C125.657 119.209 125.615 119.167 125.615 119.082V118.586C125.615 118.502 125.657 118.459 125.742 118.459H126.517C126.551 118.459 126.568 118.442 126.568 118.408V116.934C126.568 116.85 126.611 116.807 126.695 116.807H127.318C127.402 116.807 127.445 116.85 127.445 116.934V118.408C127.445 118.442 127.461 118.459 127.495 118.459H128.931C129.016 118.459 129.058 118.502 129.058 118.586V119.082ZM133.058 124.99C132.449 124.99 131.923 124.833 131.483 124.52C131.042 124.207 130.737 123.775 130.568 123.224C130.449 122.834 130.39 122.314 130.39 121.661C130.39 121.009 130.449 120.492 130.568 120.111C130.729 119.569 131.03 119.141 131.47 118.828C131.911 118.514 132.444 118.357 133.071 118.357C133.672 118.357 134.192 118.514 134.629 118.828C135.064 119.141 135.362 119.565 135.523 120.099C135.642 120.463 135.701 120.983 135.701 121.661C135.701 122.347 135.642 122.868 135.523 123.224C135.362 123.775 135.064 124.207 134.629 124.52C134.192 124.833 133.668 124.99 133.058 124.99ZM133.058 124.202C133.465 124.202 133.812 124.09 134.1 123.864C134.388 123.641 134.583 123.338 134.684 122.957C134.761 122.652 134.799 122.225 134.799 121.674C134.799 121.115 134.765 120.687 134.697 120.391C134.596 120.009 134.399 119.706 134.108 119.481C133.815 119.257 133.461 119.145 133.045 119.145C132.63 119.145 132.279 119.257 131.991 119.481C131.703 119.706 131.508 120.009 131.406 120.391C131.339 120.687 131.305 121.115 131.305 121.674C131.305 122.233 131.339 122.661 131.406 122.957C131.5 123.338 131.693 123.641 131.986 123.864C132.277 124.09 132.635 124.202 133.058 124.202ZM142.499 124.99C141.889 124.99 141.366 124.831 140.928 124.513C140.493 124.195 140.195 123.766 140.034 123.224C139.924 122.851 139.869 122.326 139.869 121.649C139.869 121.039 139.924 120.522 140.034 120.099C140.187 119.573 140.483 119.151 140.923 118.833C141.364 118.516 141.889 118.357 142.499 118.357C143.117 118.357 143.653 118.514 144.105 118.828C144.559 119.141 144.854 119.531 144.989 119.996C145.032 120.149 145.057 120.276 145.066 120.378V120.403C145.066 120.463 145.027 120.501 144.951 120.518L144.316 120.606H144.291C144.231 120.606 144.193 120.568 144.176 120.492L144.138 120.302C144.061 119.98 143.876 119.706 143.579 119.481C143.282 119.257 142.922 119.145 142.499 119.145C142.076 119.145 141.721 119.257 141.437 119.481C141.154 119.706 140.97 120.005 140.885 120.378C140.809 120.7 140.771 121.128 140.771 121.661C140.771 122.22 140.809 122.652 140.885 122.957C140.97 123.338 141.154 123.641 141.437 123.864C141.721 124.09 142.076 124.202 142.499 124.202C142.914 124.202 143.271 124.094 143.571 123.877C143.873 123.662 144.061 123.385 144.138 123.046V122.995L144.151 122.944C144.159 122.86 144.21 122.826 144.303 122.843L144.926 122.944C145.011 122.961 145.049 123.008 145.04 123.084L144.989 123.338C144.862 123.83 144.57 124.228 144.113 124.533C143.655 124.838 143.117 124.99 142.499 124.99ZM148.903 118.357C149.665 118.357 150.254 118.552 150.669 118.942C151.084 119.332 151.292 119.849 151.292 120.492V124.761C151.292 124.846 151.249 124.889 151.165 124.889H150.516C150.432 124.889 150.389 124.846 150.389 124.761V124.241C150.389 124.223 150.382 124.211 150.369 124.202C150.357 124.194 150.343 124.198 150.326 124.215C150.114 124.469 149.839 124.661 149.5 124.792C149.161 124.924 148.784 124.99 148.369 124.99C147.768 124.99 147.264 124.838 146.857 124.533C146.451 124.228 146.247 123.762 146.247 123.135C146.247 122.5 146.478 121.997 146.939 121.628C147.401 121.261 148.043 121.077 148.865 121.077H150.339C150.372 121.077 150.389 121.06 150.389 121.026V120.543C150.389 120.111 150.268 119.77 150.026 119.519C149.785 119.27 149.411 119.145 148.903 119.145C148.496 119.145 148.166 119.223 147.911 119.379C147.657 119.537 147.501 119.755 147.442 120.035C147.416 120.119 147.365 120.157 147.289 120.149L146.603 120.06C146.51 120.043 146.471 120.009 146.489 119.958C146.556 119.484 146.811 119.099 147.251 118.802C147.691 118.506 148.242 118.357 148.903 118.357ZM148.547 124.215C149.047 124.215 149.479 124.09 149.843 123.839C150.207 123.59 150.389 123.254 150.389 122.83V121.839C150.389 121.805 150.372 121.788 150.339 121.788H149.004C148.445 121.788 147.996 121.903 147.657 122.131C147.319 122.36 147.15 122.678 147.15 123.084C147.15 123.457 147.278 123.738 147.535 123.928C147.795 124.119 148.132 124.215 148.547 124.215ZM158.163 120.06C158.29 120.467 158.354 121.005 158.354 121.674C158.354 122.352 158.299 122.877 158.189 123.25C158.036 123.792 157.759 124.217 157.357 124.525C156.954 124.835 156.447 124.99 155.838 124.99C155.507 124.99 155.203 124.924 154.923 124.792C154.643 124.661 154.411 124.473 154.224 124.228C154.207 124.211 154.193 124.204 154.181 124.207C154.167 124.213 154.161 124.223 154.161 124.241V127.227C154.161 127.311 154.118 127.354 154.033 127.354H153.385C153.301 127.354 153.258 127.311 153.258 127.227V118.586C153.258 118.502 153.301 118.459 153.385 118.459H154.033C154.118 118.459 154.161 118.502 154.161 118.586V119.12C154.161 119.137 154.167 119.147 154.181 119.151C154.193 119.155 154.207 119.15 154.224 119.132C154.411 118.887 154.642 118.696 154.918 118.561C155.192 118.425 155.499 118.357 155.838 118.357C156.431 118.357 156.929 118.51 157.332 118.815C157.733 119.12 158.011 119.535 158.163 120.06ZM157.159 123.275C157.252 123.089 157.322 122.878 157.37 122.644C157.416 122.413 157.439 122.089 157.439 121.674C157.439 121.276 157.422 120.965 157.388 120.741C157.354 120.516 157.295 120.314 157.21 120.137C157.108 119.831 156.929 119.59 156.671 119.412C156.412 119.234 156.105 119.145 155.749 119.145C155.41 119.145 155.126 119.234 154.897 119.412C154.669 119.59 154.5 119.827 154.389 120.123C154.313 120.293 154.258 120.492 154.224 120.721C154.19 120.95 154.173 121.267 154.173 121.674C154.173 122.08 154.19 122.4 154.224 122.632C154.258 122.866 154.317 123.071 154.402 123.25C154.504 123.538 154.671 123.768 154.905 123.941C155.137 124.115 155.414 124.202 155.736 124.202C156.075 124.202 156.37 124.118 156.62 123.948C156.869 123.779 157.049 123.554 157.159 123.275ZM160.793 117.29C160.59 117.29 160.42 117.222 160.285 117.087C160.15 116.952 160.081 116.782 160.081 116.579C160.081 116.367 160.15 116.195 160.285 116.063C160.42 115.932 160.59 115.867 160.793 115.867C160.996 115.867 161.166 115.932 161.301 116.063C161.437 116.195 161.505 116.367 161.505 116.579C161.505 116.782 161.437 116.952 161.301 117.087C161.166 117.222 160.996 117.29 160.793 117.29ZM160.438 124.876C160.353 124.876 160.311 124.833 160.311 124.749V118.573C160.311 118.489 160.353 118.446 160.438 118.446H161.085C161.17 118.446 161.213 118.489 161.213 118.573V124.749C161.213 124.833 161.17 124.876 161.085 124.876H160.438ZM166.307 119.082C166.307 119.167 166.265 119.209 166.18 119.209H164.745C164.711 119.209 164.694 119.226 164.694 119.259V123.008C164.694 123.415 164.784 123.7 164.966 123.864C165.149 124.03 165.435 124.114 165.825 124.114H166.142C166.227 124.114 166.269 124.156 166.269 124.241V124.761C166.269 124.846 166.227 124.889 166.142 124.889C166.041 124.897 165.884 124.901 165.672 124.901C165.063 124.901 164.601 124.787 164.287 124.558C163.974 124.329 163.817 123.906 163.817 123.288V119.259C163.817 119.226 163.8 119.209 163.766 119.209H162.991C162.906 119.209 162.864 119.167 162.864 119.082V118.586C162.864 118.502 162.906 118.459 162.991 118.459H163.766C163.8 118.459 163.817 118.442 163.817 118.408V116.934C163.817 116.85 163.859 116.807 163.944 116.807H164.567C164.652 116.807 164.694 116.85 164.694 116.934V118.408C164.694 118.442 164.711 118.459 164.745 118.459H166.18C166.265 118.459 166.307 118.502 166.307 118.586V119.082ZM170.272 118.357C171.034 118.357 171.623 118.552 172.038 118.942C172.452 119.332 172.658 119.849 172.658 120.492V124.761C172.658 124.846 172.616 124.889 172.531 124.889H171.885C171.801 124.889 171.758 124.846 171.758 124.761V124.241C171.758 124.223 171.752 124.211 171.738 124.202C171.726 124.194 171.712 124.198 171.695 124.215C171.483 124.469 171.208 124.661 170.869 124.792C170.53 124.924 170.153 124.99 169.735 124.99C169.136 124.99 168.633 124.838 168.226 124.533C167.818 124.228 167.614 123.762 167.614 123.135C167.614 122.5 167.845 121.997 168.307 121.628C168.77 121.261 169.412 121.077 170.234 121.077H171.705C171.741 121.077 171.758 121.06 171.758 121.026V120.543C171.758 120.111 171.638 119.77 171.395 119.519C171.155 119.27 170.78 119.145 170.272 119.145C169.865 119.145 169.535 119.223 169.281 119.379C169.027 119.537 168.87 119.755 168.811 120.035C168.785 120.119 168.733 120.157 168.656 120.149L167.972 120.06C167.877 120.043 167.839 120.009 167.858 119.958C167.924 119.484 168.178 119.099 168.62 118.802C169.061 118.506 169.611 118.357 170.272 118.357ZM169.916 124.215C170.414 124.215 170.846 124.09 171.212 123.839C171.576 123.59 171.758 123.254 171.758 122.83V121.839C171.758 121.805 171.741 121.788 171.705 121.788H170.371C169.814 121.788 169.366 121.903 169.027 122.131C168.688 122.36 168.518 122.678 168.518 123.084C168.518 123.457 168.647 123.738 168.905 123.928C169.162 124.119 169.5 124.215 169.916 124.215ZM174.666 124.889C174.581 124.889 174.539 124.846 174.539 124.761V116.121C174.539 116.037 174.581 115.994 174.666 115.994H175.314C175.399 115.994 175.441 116.037 175.441 116.121V124.761C175.441 124.846 175.399 124.889 175.314 124.889H174.666Z" fill="white"/>
</g>
<mask id="mask2_9_5820" style="mask-type:luminance" maskUnits="userSpaceOnUse" x="54" y="50" width="26" height="26">
<path d="M54.1719 50.1641H79.1703V75.1859H54.1719V50.1641Z" fill="white"/>
</mask>
<g mask="url(#mask2_9_5820)">
<path d="M54.1719 50.2031H79.1557V75.187H54.1719V50.2031Z" fill="white"/>
</g>
<path d="M98.6837 37.1797L79.5301 49.1516H55.4609L74.6176 37.1797H98.6837Z" fill="white"/>
<path d="M120.793 49.3843L80.1953 74.7619V49.9646L120.793 24.5859V49.3843Z" fill="white"/>
<path d="M121.451 50.1953H145.528L126.371 62.1666H102.305L121.451 50.1953Z" fill="white"/>
<mask id="mask3_9_5820" style="mask-type:luminance" maskUnits="userSpaceOnUse" x="121" y="24" width="26" height="26">
<path d="M121.703 24.1719H146.821V49.226H121.703V24.1719Z" fill="white"/>
</mask>
<g mask="url(#mask3_9_5820)">
<path d="M121.836 24.1719H146.821V49.1563H121.836V24.1719Z" fill="white"/>
</g>
</g>
<defs>
<clipPath id="clip0_9_5820">
<rect width="200" height="150" fill="white" transform="translate(0.5 0.960938)"/>
</clipPath>
</defs>
</svg>
