<svg width="80" height="81" viewBox="0 0 80 81" fill="none" xmlns="http://www.w3.org/2000/svg">
<path d="M36.6667 50.0365H43.3333C45.1014 50.0365 46.7971 49.3341 48.0474 48.0838C49.2976 46.8336 50 45.1379 50 43.3698C50 41.6017 49.2976 39.906 48.0474 38.6557C46.7971 37.4055 45.1014 36.7031 43.3333 36.7031H33.3333C31.3333 36.7031 29.6667 37.3698 28.6667 38.7031L10 56.7031" stroke="#0000BF" stroke-width="2" stroke-linecap="round" stroke-linejoin="round"/>
<path d="M23.3359 70.0361L28.6693 65.3694C29.6693 64.0361 31.3359 63.3694 33.3359 63.3694H46.6693C50.3359 63.3694 53.6693 62.0361 56.0026 59.3694L71.3359 44.7027C72.6222 43.4872 73.373 41.8104 73.423 40.0413C73.473 38.2722 72.8182 36.5557 71.6026 35.2694C70.387 33.9831 68.7103 33.2324 66.9412 33.1824C65.1721 33.1323 63.4556 33.7872 62.1693 35.0027L48.1693 48.0027" stroke="#0000BF" stroke-width="2" stroke-linecap="round" stroke-linejoin="round"/>
<path d="M6.66406 53.375L26.6641 73.375" stroke="#0000BF" stroke-width="2" stroke-linecap="round" stroke-linejoin="round"/>
<path d="M53.3307 39.7083C58.6695 39.7083 62.9974 35.3804 62.9974 30.0417C62.9974 24.7029 58.6695 20.375 53.3307 20.375C47.992 20.375 43.6641 24.7029 43.6641 30.0417C43.6641 35.3804 47.992 39.7083 53.3307 39.7083Z" stroke="#0000BF" stroke-width="2" stroke-linecap="round" stroke-linejoin="round"/>
<path d="M20 26.7031C25.5228 26.7031 30 22.226 30 16.7031C30 11.1803 25.5228 6.70312 20 6.70312C14.4772 6.70312 10 11.1803 10 16.7031C10 22.226 14.4772 26.7031 20 26.7031Z" stroke="#0000BF" stroke-width="2" stroke-linecap="round" stroke-linejoin="round"/>
</svg>
